<?xml version="1.0" encoding="UTF-8"?>
<!DOCTYPE svg PUBLIC "-//W3C//DTD SVG 1.1//EN" "http://www.w3.org/Graphics/SVG/1.1/DTD/svg11.dtd">
<!-- Creator: CorelDRAW 2021 (64 Bit) -->
<svg xmlns="http://www.w3.org/2000/svg" xml:space="preserve" width="209.836mm" height="280.005mm" version="1.1" style="shape-rendering:geometricPrecision; text-rendering:geometricPrecision; image-rendering:optimizeQuality; fill-rule:evenodd; clip-rule:evenodd"
viewBox="0 0 20966.89 27978.25"
 xmlns:xlink="http://www.w3.org/1999/xlink"
 xmlns:xodm="http://www.corel.com/coreldraw/odm/2003">
 <defs>
  <style type="text/css">
   <![CDATA[
    .fil0 {fill:white;fill-rule:nonzero}
   ]]>
  </style>
 </defs>
 <g id="Camada_x0020_1">
  <metadata id="CorelCorpID_0Corel-Layer"/>
  <path class="fil0" d="M13142.01 12240.26l6092.82 0c726.76,0 1382.49,453.55 1590.15,1131.13 300.54,683.06 109.28,1453.53 -437.15,1934.4l-13988.88 12240.27c-617.48,535.51 -1520.75,579.23 -2180.85,98.36 -660.64,-480.87 -901.08,-1355.17 -579.23,-2103.8l4202.68 -9803.15 -6142 0c-679.22,0 -1331.51,-453.55 -1587.74,-1131.13 -256.23,-683.06 -62.82,-1453.53 485.56,-1934.4l13987.24 -12239.28c617.48,-537.59 1519.11,-578.52 2180.31,-98.58 661.18,480.1 901.62,1352.76 579.22,2103.58l-4202.13 9802.6z"/>
 </g>
</svg>
