<?xml version="1.0" encoding="UTF-8"?>
<!DOCTYPE svg PUBLIC "-//W3C//DTD SVG 1.1//EN" "http://www.w3.org/Graphics/SVG/1.1/DTD/svg11.dtd">
<!-- Creator: CorelDRAW 2021 (64 Bit) -->
<svg xmlns="http://www.w3.org/2000/svg" xml:space="preserve" width="148.5mm" height="297mm" version="1.1" style="shape-rendering:geometricPrecision; text-rendering:geometricPrecision; image-rendering:optimizeQuality; fill-rule:evenodd; clip-rule:evenodd"
viewBox="0 0 14850 29700.01"
 xmlns:xlink="http://www.w3.org/1999/xlink"
 xmlns:xodm="http://www.corel.com/coreldraw/odm/2003">
 <defs>
  <style type="text/css">
   <![CDATA[
    .fil0 {fill:white;fill-rule:nonzero}
   ]]>
  </style>
 </defs>
 <g id="Camada_x0020_1">
  <metadata id="CorelCorpID_0Corel-Layer"/>
  <path class="fil0" d="M11137.5 0.01c771.5,-0.02 1392.19,623 1392.19,1339.98 0,820.81 -620.69,1392.19 -1392.19,1444.39l-464.06 0 0 5388.93c2471.13,1200.76 4176.56,3741.5 4176.56,6676.7l0 11137.5c0,2047.68 -1664.82,3712.5 -3712.5,3712.5l-7425 0c-2050.58,0 -3712.5,-1664.82 -3712.5,-3712.5l0 -11137.5c0,-2935.2 1703.69,-5475.94 4176.56,-6676.7l0 -5388.93 -464.06 0c-768.6,0 -1392.19,-623 -1392.19,-1392.18 -52.2,-768.61 623.01,-1391.93 1339.98,-1391.95l7477.21 -0.24zm-3712.5 22275c1537.21,0 2784.38,-928.12 2784.38,-2784.37 0,-1856.25 -2784.38,-4640.63 -2784.38,-4640.63 0,0 -2784.38,2784.38 -2784.38,4640.63 0,1537.2 1247.17,2784.37 2784.38,2784.37z"/>
 </g>
</svg>
