<?xml version="1.0" encoding="UTF-8"?>
<!DOCTYPE svg PUBLIC "-//W3C//DTD SVG 1.1//EN" "http://www.w3.org/Graphics/SVG/1.1/DTD/svg11.dtd">
<!-- Creator: CorelDRAW 2021 (64 Bit) -->
<svg xmlns="http://www.w3.org/2000/svg" xml:space="preserve" width="167.067mm" height="297mm" version="1.1" style="shape-rendering:geometricPrecision; text-rendering:geometricPrecision; image-rendering:optimizeQuality; fill-rule:evenodd; clip-rule:evenodd"
viewBox="0 0 16706.28 29699.2"
 xmlns:xlink="http://www.w3.org/1999/xlink"
 xmlns:xodm="http://www.corel.com/coreldraw/odm/2003">
 <defs>
  <style type="text/css">
   <![CDATA[
    .fil0 {fill:white;fill-rule:nonzero}
   ]]>
  </style>
 </defs>
 <g id="Camada_x0020_1">
  <metadata id="CorelCorpID_0Corel-Layer"/>
  <path class="fil0" d="M8353.36 0c1026.71,0 1856.2,831.23 1856.2,1856.2l0 2069.66c92.81,12.18 179.82,25.52 272.63,38.86 614.86,91.66 2447.86,386.91 3201.94,577.74 939.69,251.75 1595.17,1263.96 1339.94,2255.87 -249.43,991.9 -1258.74,1595.17 -2256.45,1345.74 -539.46,-191.42 -2181.03,-411.85 -2830.7,-504.66 -1862,-278.43 -3457.17,-139.22 -4553.49,278.43 -1060.35,406.04 -1500.62,980.3 -1617.22,1624.18 -112.53,620.66 -27.26,974.5 74.83,1194.93 109.64,232.02 323.68,493.05 750.02,777.28 943.18,620.66 2381.74,1038.31 4249.55,1542.97l162.42 46.4c1647.38,446.65 3665.99,997.71 5162.55,1989.62 817.89,545.27 1589.38,1281.95 2065.02,2302.85 481.46,1032.51 585.86,2192.64 365.44,3375.97 -406.04,2256.44 -1972.22,3729.8 -3811.01,4495.48 -788.89,324.84 -1658.99,533.67 -2575.48,638.07l0 1937.41c0,1026.71 -829.49,1856.2 -1856.2,1856.2 -1026.71,0 -1856.2,-829.49 -1856.2,-1856.2l0 -2024.42c-23.2,0 -52.21,-58.01 -75.41,-11.6l-11.6 0c-1409.55,-220.42 -3737.35,-829.5 -5307.58,-1525.57 -936.79,-417.65 -1358.5,-1513.96 -942.01,-2453.66 416.48,-933.9 1513.38,-1357.34 2397.98,-939.7 1264.54,539.47 3259.95,1067.32 4414.27,1247.14 1856.2,278.43 3381.77,116.02 4414.28,-301.63 980.3,-400.24 1426.95,-980.3 1554.57,-1676.38 110.21,-620.66 29,-974.5 -75.41,-1194.93 -110.22,-232.02 -324.84,-493.05 -748.28,-777.28 -945.5,-620.66 -2384.06,-1038.31 -4251.87,-1542.97l-162.42 -46.4c-1647.38,-446.66 -3667.15,-997.71 -5164.87,-1989.62 -818.47,-545.27 -1585.32,-1281.95 -2061.54,-2302.85 -483.2,-1032.51 -588.18,-2192.64 -363.7,-3428.17 410.69,-2256.45 2036.02,-3695.58 3945,-4424.14 755.24,-288.29 1574.29,-477.97 2438.58,-580.06l0 -2014.56c0,-1024.97 829.49,-1856.2 1856.2,-1856.2l0 0z"/>
 </g>
</svg>
