<?xml version="1.0" encoding="UTF-8"?>
<!DOCTYPE svg PUBLIC "-//W3C//DTD SVG 1.1//EN" "http://www.w3.org/Graphics/SVG/1.1/DTD/svg11.dtd">
<!-- Creator: CorelDRAW 2021 (64 Bit) -->
<svg xmlns="http://www.w3.org/2000/svg" xml:space="preserve" width="210mm" height="210mm" version="1.1" style="shape-rendering:geometricPrecision; text-rendering:geometricPrecision; image-rendering:optimizeQuality; fill-rule:evenodd; clip-rule:evenodd"
viewBox="0 0 21000 21000"
 xmlns:xlink="http://www.w3.org/1999/xlink"
 xmlns:xodm="http://www.corel.com/coreldraw/odm/2003">
 <defs>
  <style type="text/css">
   <![CDATA[
    .fil0 {fill:white;fill-rule:nonzero}
   ]]>
  </style>
 </defs>
 <g id="Camada_x0020_1">
  <metadata id="CorelCorpID_0Corel-Layer"/>
  <path class="fil0" d="M21000 18050.98c0,1632.42 -1324.8,2949.02 -2990.04,2949.02l-15060.12 0c-1630.37,0 -2949.84,-1320.7 -2949.84,-2953.12 0,-1471.64 1074.2,-2680.37 2483.91,-2905.96 -707.52,-539.36 -1171.41,-1384.28 -1171.41,-2344.04 0,-1632.43 1322.75,-2953.13 2953.12,-2953.13l573.81 0c-553.3,-483.98 -901.93,-1181.25 -901.93,-1968.75 0,-1451.13 1171.41,-2625 2622.54,-2625l656.25 0c1811.25,0 3283.71,-1471.64 3283.71,-3281.25 0,-712.85 -237.23,-1367.87 -621.8,-1906 203.44,-30.95 412.62,-62.75 621.8,-62.75 2173.83,0 3937.5,1763.67 3937.5,3937.5 0,461.43 -93.84,902.34 -242.53,1312.5l241.14 0c1449.24,0 2626.39,1173.05 2626.39,2625 0,789.55 -352.32,1486.82 -906.04,1968.75l577.92 0c1632.42,0 2953.12,1320.7 2953.12,2953.13 0,958.95 -466.76,1805.1 -1174.28,2343.63 1408.07,223.94 2486.78,1442.11 2486.78,2910.47z"/>
 </g>
</svg>
