<?xml version="1.0" encoding="UTF-8"?>
<!DOCTYPE svg PUBLIC "-//W3C//DTD SVG 1.1//EN" "http://www.w3.org/Graphics/SVG/1.1/DTD/svg11.dtd">
<!-- Creator: CorelDRAW 2021 (64 Bit) -->
<svg xmlns="http://www.w3.org/2000/svg" xml:space="preserve" width="209.999mm" height="205.407mm" version="1.1" style="shape-rendering:geometricPrecision; text-rendering:geometricPrecision; image-rendering:optimizeQuality; fill-rule:evenodd; clip-rule:evenodd"
viewBox="0 0 21000.34 20541.09"
 xmlns:xlink="http://www.w3.org/1999/xlink"
 xmlns:xodm="http://www.corel.com/coreldraw/odm/2003">
 <defs>
  <style type="text/css">
   <![CDATA[
    .fil0 {fill:white;fill-rule:nonzero}
   ]]>
  </style>
 </defs>
 <g id="Camada_x0020_1">
  <metadata id="CorelCorpID_0Corel-Layer"/>
  <path class="fil0" d="M7390.91 9970.6c196.87,853.14 -738.31,1521.71 -1480.7,1054.12l-996.7 -623.45 -2087.74 3339.97c-546.75,874.47 82.2,2008.99 1113.59,2008.99l1313.36 0c723.53,0 1311.71,587.35 1311.71,1310.89 0,723.53 -588.17,1314.58 -1311.71,1314.58l-1309.25 0c-3091,0 -4975.3,-3397.8 -3341.61,-6021.21l2084.86 -3339.57 -999.16 -627.54c-742.81,-467.59 -553.31,-1599.64 300.66,-1796.53l3750.14 -867.5c352.33,-75.88 709.17,137.4 791.21,494.25l861.35 3753.01zm4220.59 -6732.45l1691.92 2712.83 -994.65 618.53c-744.86,463.9 -556.59,1597.18 298.52,1795.29l3748.91 867.5c353.65,81.83 706.71,-138.92 787.93,-492.61l862.99 -3750.14c196.42,-853.56 -736.25,-1519.66 -1479.46,-1056.58l-999.16 623.45 -1689.79 -2705.44c-1541.4,-2466.73 -5135.27,-2468.37 -6677.48,-2.53l-303.53 484.88c-381.45,609.09 -192.77,1422.45 414.27,1804.73 611.96,383.88 1426.14,200.4 1809.24,-411.81l305.25 -487.69c522.87,-836.32 1724.66,-805.56 2225.06,-0.41zm8785.73 9119.61l-696.87 -1118.11c-382.93,-614.42 -1191.93,-802.29 -1806.37,-418.78 -612.78,382.19 -800.65,1195.63 -417.55,1808.01l696.87 1113.59c547.57,874.47 -81.38,2009.81 -1113.18,2009.81l-3937.17 0 0.96 -1178.81c0,-876.93 -1060.27,-1316.22 -1680.44,-696.05l-2723.91 2724.73c-255.21,255.25 -255.21,673.08 0.18,928.2l2724.32 2721.04c620.17,619.35 1679.62,179.89 1679.62,-696.46l-0.96 -1176.35 3931.84 0.01c3092.46,0.41 4979.21,-3399.85 3342.66,-6020.8z"/>
 </g>
</svg>
