<?xml version="1.0" encoding="UTF-8"?>
<!DOCTYPE svg PUBLIC "-//W3C//DTD SVG 1.1//EN" "http://www.w3.org/Graphics/SVG/1.1/DTD/svg11.dtd">
<!-- Creator: CorelDRAW 2021 (64 Bit) -->
<svg xmlns="http://www.w3.org/2000/svg" xml:space="preserve" width="210.015mm" height="240.115mm" version="1.1" style="shape-rendering:geometricPrecision; text-rendering:geometricPrecision; image-rendering:optimizeQuality; fill-rule:evenodd; clip-rule:evenodd"
viewBox="0 0 21000.54 24010.41"
 xmlns:xlink="http://www.w3.org/1999/xlink"
 xmlns:xodm="http://www.corel.com/coreldraw/odm/2003">
 <defs>
  <style type="text/css">
   <![CDATA[
    .fil0 {fill:white;fill-rule:nonzero}
   ]]>
  </style>
 </defs>
 <g id="Camada_x0020_1">
  <metadata id="CorelCorpID_0Corel-Layer"/>
  <path class="fil0" d="M19397.22 20968.36l-7396.54 42.19 0 1499.46c0,830.12 -665.59,1500.4 -1495.24,1500.4 -828.24,0 -1504.62,-671.22 -1504.62,-1499.46l0 -1499.46 -7448.1 -0.46c-1335.88,0 -2047.88,-1616.65 -1157.29,-2643.63l3233.29 -3730.61 -711.07 -0.01c-1191.04,0 -1835.08,-1396.82 -1062.61,-2302.86l2831.59 -3320.94 -503.88 0c-997.45,0 -1540.71,-1054.64 -903.71,-1748.83l6318.46 -6866.88c487.48,-529.67 1322.75,-529.67 1810.23,-0.15l6323.15 6866.88c638.41,694.19 93.8,1748.83 -903.71,1748.83l-504.82 -0.01 2828.78 3321.41c771.52,906.52 127.3,2302.39 -1063.08,2302.39l-712.47 0.01 3233.29 3730.61c892.92,1035.57 161.7,2601.12 -1211.66,2601.12z"/>
 </g>
</svg>
