<?xml version="1.0" encoding="UTF-8"?>
<!DOCTYPE svg PUBLIC "-//W3C//DTD SVG 1.1//EN" "http://www.w3.org/Graphics/SVG/1.1/DTD/svg11.dtd">
<!-- Creator: CorelDRAW 2021 (64 Bit) -->
<svg xmlns="http://www.w3.org/2000/svg" xml:space="preserve" width="209.993mm" height="183.75mm" version="1.1" style="shape-rendering:geometricPrecision; text-rendering:geometricPrecision; image-rendering:optimizeQuality; fill-rule:evenodd; clip-rule:evenodd"
viewBox="0 0 21001.34 18376.82"
 xmlns:xlink="http://www.w3.org/1999/xlink"
 xmlns:xodm="http://www.corel.com/coreldraw/odm/2003">
 <defs>
  <style type="text/css">
   <![CDATA[
    .fil0 {fill:white;fill-rule:nonzero}
   ]]>
  </style>
 </defs>
 <g id="Camada_x0020_1">
  <metadata id="CorelCorpID_0Corel-Layer"/>
  <path class="fil0" d="M20766.86 15792.58l-8749.5 -14931.17c-669.86,-1148.55 -2360.27,-1148.55 -3034.64,0l-8745.4 14931.17c-673.14,1144.44 165.27,2584.24 1514.45,2584.24l17498.99 0c1343.81,0 2184.72,-1435.69 1516.09,-2584.24zm-11251.7 -10213.91c0,-543.51 440.96,-984.48 984.48,-984.48 543.51,0 984.48,443.02 984.48,984.48l0 5250.52c0,543.51 -440.96,984.48 -947.55,984.48 -506.59,0 -1021.4,-438.91 -1021.4,-984.47l0 -5250.53zm984.48 10172.89c-712.1,0 -1289.66,-577.56 -1289.66,-1289.66 0,-712.1 577.15,-1289.66 1289.66,-1289.66 712.51,0 1289.66,577.56 1289.66,1289.66 -1.64,711.28 -575.92,1289.66 -1289.66,1289.66z"/>
 </g>
</svg>
