<?xml version="1.0" encoding="UTF-8"?>
<!DOCTYPE svg PUBLIC "-//W3C//DTD SVG 1.1//EN" "http://www.w3.org/Graphics/SVG/1.1/DTD/svg11.dtd">
<!-- Creator: CorelDRAW 2021 (64 Bit) -->
<svg xmlns="http://www.w3.org/2000/svg" xml:space="preserve" width="183.75mm" height="210mm" version="1.1" style="shape-rendering:geometricPrecision; text-rendering:geometricPrecision; image-rendering:optimizeQuality; fill-rule:evenodd; clip-rule:evenodd"
viewBox="0 0 18375 21000"
 xmlns:xlink="http://www.w3.org/1999/xlink"
 xmlns:xodm="http://www.corel.com/coreldraw/odm/2003">
 <defs>
  <style type="text/css">
   <![CDATA[
    .fil0 {fill:white;fill-rule:nonzero}
   ]]>
  </style>
 </defs>
 <g id="Camada_x0020_1">
  <metadata id="CorelCorpID_0Corel-Layer"/>
  <path class="fil0" d="M9187.5 3937.5c0,-2174.65 1726.76,-3937.5 3937.5,-3937.5l1575 0c2030.27,0 3675,1645.55 3675,3675l0 11746.88c0,3080.27 -2497.85,5578.12 -5578.12,5578.12 -3080.28,0 -5578.13,-2497.85 -5578.13,-5578.12l0 -3281.25c0,-906.45 -734.18,-1640.63 -1640.63,-1640.63 -906.44,0 -1640.62,734.18 -1640.62,1640.63l0 6890.62c0,1086.91 -881.84,1968.75 -1968.75,1968.75 -1087.32,0 -1968.75,-881.84 -1968.75,-1968.75l0 -6890.62c0,-3080.28 2497.44,-5578.13 5578.12,-5578.13 3080.28,0 5578.13,2497.85 5578.13,5578.13l0 3281.25c0,906.44 734.18,1640.62 1640.63,1640.62 906.44,0 1640.62,-734.18 1640.62,-1640.62l0 -7546.88 -1312.5 0c-2210.74,0 -3937.5,-1763.67 -3937.5,-3937.5zm4921.88 -1312.5c-545.51,0 -984.38,440.92 -984.38,984.37 0,545.51 438.87,984.38 984.38,984.38 545.5,0 984.37,-438.87 984.37,-984.38 0,-543.45 -438.87,-984.37 -984.37,-984.37z"/>
 </g>
</svg>
